#format: frame checksums
#version: 2
#hash: MD5
#tb 0: 1001/30000
#media_type 0: video
#codec_id 0: rawvideo
#dimensions 0: 10x32
#sar 0: 1/1
#stream#, dts,        pts, duration,     size, hash
0,          0,          0,        1,      480, 622e6407a051ea08706394d03330ffbf
0,          1,          1,        1,      480, 1841a0daf7c3ef7be94e01fdb1d3968a
0,          2,          2,        1,      480, 37790e6cb2415f7add0ac5d3ab354755
0,          3,          3,        1,      480, 91485880e17c292096a7335566d3648f
0,          4,          4,        1,      480, eb6f74983d5fd13d6bd90afbce8836e1
0,          5,          5,        1,      480, 0069ab5ff7f0d4d601f7d0f9b7a08338
0,          6,          6,        1,      480, dbf04254765f7497070387e8c34895c6
0,          7,          7,        1,      480, 410a9b2d9855b2c29618070994adae96
0,          8,          8,        1,      480, 7e7f34effd90209f29f1b9ae01488b3b
0,          9,          9,        1,      480, 471530f74082c01c9b0f1fcf3d240d77
